<?xml version="1.0" encoding="UTF-8"?>
<svg version="1.1" xmlns="http://www.w3.org/2000/svg" width="512" height="512">
<path d="M0 0 C1.01790619 0.00215515 2.03581238 0.0043103 3.08456421 0.00653076 C17.69363523 0.05620146 32.02575853 0.30709809 46.375 3.3125 C47.34985352 3.51117676 48.32470703 3.70985352 49.32910156 3.91455078 C97.7109774 14.03517194 141.69928269 35.9516877 177.375 70.3125 C178.3640332 71.26068604 178.3640332 71.26068604 179.37304688 72.22802734 C188.86130305 81.37247479 197.6012044 90.66984009 205.375 101.3125 C206.23306152 102.46355017 207.09113451 103.61459177 207.94921875 104.765625 C213.98677396 112.95525981 219.36957302 121.45788276 224.375 130.3125 C224.7771875 131.01971191 225.179375 131.72692383 225.59375 132.45556641 C238.6191741 155.59095836 247.36801461 180.76212409 252.6875 206.75 C252.83485596 207.46889404 252.98221191 208.18778809 253.1340332 208.9284668 C256.08515207 224.45512092 256.78207988 239.85563408 256.75 255.625 C256.74918427 257.13927582 256.74918427 257.13927582 256.74835205 258.68414307 C256.70758601 275.19373539 255.80029309 291.11032001 252.375 307.3125 C252.15537598 308.35438477 251.93575195 309.39626953 251.70947266 310.46972656 C242.71140931 351.72199434 223.99081216 390.29861405 196.375 422.3125 C195.74078125 423.05757813 195.1065625 423.80265625 194.453125 424.5703125 C182.64198485 438.07529833 169.89139772 450.74668743 155.375 461.3125 C154.22505169 462.16899066 153.07531411 463.02576433 151.92578125 463.8828125 C143.73410474 469.9234414 135.21854922 475.28255071 126.375 480.3125 C125.74319824 480.67698242 125.11139648 481.04146484 124.46044922 481.41699219 C98.37535999 496.34723018 69.03914886 505.82635054 39.375 510.3125 C38.25254883 510.48910156 37.13009766 510.66570312 35.97363281 510.84765625 C24.36052257 512.5045586 12.84320055 512.71123513 1.125 512.6875 C-0.39302216 512.68668427 -0.39302216 512.68668427 -1.94171143 512.68585205 C-18.47030572 512.64511956 -34.40413999 511.74174222 -50.625 508.3125 C-51.66688477 508.09287598 -52.70876953 507.87325195 -53.78222656 507.64697266 C-100.07549311 497.54935215 -142.48913721 475.19021242 -176.625 442.3125 C-177.28435547 441.68037598 -177.94371094 441.04825195 -178.62304688 440.39697266 C-188.11130305 431.25252521 -196.8512044 421.95515991 -204.625 411.3125 C-205.48306152 410.16144983 -206.34113451 409.01040823 -207.19921875 407.859375 C-213.23736829 399.66819386 -218.59595521 391.15445895 -223.625 382.3125 C-223.98948242 381.68069824 -224.35396484 381.04889648 -224.72949219 380.39794922 C-246.33534998 342.64967428 -256.10198095 299.88310003 -255.9375 256.6875 C-255.93534485 255.66959381 -255.9331897 254.65168762 -255.93096924 253.60293579 C-255.88129854 238.99386477 -255.63040191 224.66174147 -252.625 210.3125 C-252.42632324 209.33764648 -252.22764648 208.36279297 -252.02294922 207.35839844 C-241.90232806 158.9765226 -219.9858123 114.98821731 -185.625 79.3125 C-184.99287598 78.65314453 -184.36075195 77.99378906 -183.70947266 77.31445312 C-174.56502521 67.82619695 -165.26765991 59.0862956 -154.625 51.3125 C-153.47394983 50.45443848 -152.32290823 49.59636549 -151.171875 48.73828125 C-142.98224019 42.70072604 -134.47961724 37.31792698 -125.625 32.3125 C-124.91778809 31.9103125 -124.21057617 31.508125 -123.48193359 31.09375 C-100.34654164 18.0683259 -75.17537591 9.31948539 -49.1875 4 C-48.46860596 3.85264404 -47.74971191 3.70528809 -47.0090332 3.5534668 C-31.36274391 0.57960912 -15.88931954 -0.06050362 0 0 Z " fill="#91E9FE" transform="translate(255.625,-0.3125)"/>
<path d="M0 0 C17.61697074 -0.82365058 33.26841991 2.83405185 47.3125 14.25 C57.36080633 23.72593445 63.54264111 35.78895384 67 49 C67.72703125 47.948125 67.72703125 47.948125 68.46875 46.875 C78.86578581 32.15919548 91.78056657 21.24483272 110 18 C122.46987909 16.56917656 133.27595054 18.8446407 145 23 C143.89158486 26.32524542 143.34836837 26.74479055 140.59765625 28.6796875 C139.88150146 29.18959229 139.16534668 29.69949707 138.42749023 30.22485352 C137.64704346 30.76940186 136.86659668 31.3139502 136.0625 31.875 C134.4086882 33.04794311 132.75504704 34.22112684 131.1015625 35.39453125 C130.25239258 35.99346191 129.40322266 36.59239258 128.52832031 37.20947266 C124.64159951 39.96200359 120.79162668 42.76462359 116.9375 45.5625 C108.34249996 51.78058306 99.68032152 57.90179944 91 64 C92.16917969 63.67515625 93.33835937 63.3503125 94.54296875 63.015625 C110.12283607 59.1369336 126.16989336 63.02723264 139.9375 70.5625 C151.02384606 77.54150278 158.597822 87.23594475 164 99 C164 99.99 164 100.98 164 102 C156.96149689 101.27415437 149.99024898 100.28017157 143 99.1875 C141.30508423 98.9246521 141.30508423 98.9246521 139.57592773 98.65649414 C129.68378505 97.11777742 119.7981681 95.53862665 109.9140625 93.94921875 C101.61226002 92.61456319 93.30622178 91.30681916 85 90 C85.50789063 90.32871094 86.01578125 90.65742188 86.5390625 90.99609375 C94.9412119 96.80207339 100.42947916 105.08098457 103 115 C103.923888 122.83747681 102.73264633 129.64788012 100 137 C96.96017053 135.68472791 95.32830328 134.49276535 93.4765625 131.75390625 C93.01942871 131.0902002 92.56229492 130.42649414 92.09130859 129.74267578 C91.36548584 128.66348877 91.36548584 128.66348877 90.625 127.5625 C89.56967114 126.02859565 88.51229376 124.49609915 87.453125 122.96484375 C86.89689453 122.15901855 86.34066406 121.35319336 85.76757812 120.52294922 C82.7151457 116.16606571 79.54417381 111.89733597 76.375 107.625 C75.19495082 106.03412238 74.01523808 104.44299512 72.8359375 102.8515625 C72.33626465 102.17947754 71.8365918 101.50739258 71.32177734 100.81494141 C70.17388669 99.23876499 69.08159214 97.62238821 68 96 C65.91488129 105.52283684 65.21211365 116.39161943 67 126 C69.98856205 130.30035566 73.34344581 131.82777365 78 134 C80.2890625 135.921875 80.2890625 135.921875 82.1875 137.875 C82.73792969 138.42929687 83.28835938 138.98359375 83.85546875 139.5546875 C85 141 85 141 85 143 C81.828262 144.585869 78.36486178 144.37866445 74.875 144.5625 C73.74384766 144.62727539 73.74384766 144.62727539 72.58984375 144.69335938 C70.72678112 144.7994832 68.86341476 144.90025001 67 145 C68.41106413 156.65561914 70.09498633 168.19133507 72.5 179.6875 C72.70133545 180.65300781 72.9026709 181.61851562 73.11010742 182.61328125 C74.51619033 189.16484925 76.23182006 195.51667355 78 202 C106.38 202 134.76 202 164 202 C160.61647727 213.27840909 160.61647727 213.27840909 158.6875 217.375 C158.04252563 218.74507202 158.04252563 218.74507202 157.38452148 220.14282227 C156.92762939 221.08569092 156.4707373 222.02855957 156 223 C155.51797119 223.99894287 155.03594238 224.99788574 154.53930664 226.02709961 C145.31080119 244.81814016 133.59232816 262.09356579 120 278 C119.36320312 278.74894531 118.72640625 279.49789063 118.0703125 280.26953125 C106.25297532 293.76520621 93.51448412 306.43558025 79 317 C77.85005169 317.85649066 76.70031411 318.71326433 75.55078125 319.5703125 C67.35910474 325.6109414 58.84354922 330.97005071 50 336 C49.36819824 336.36448242 48.73639648 336.72896484 48.08544922 337.10449219 C22.00035999 352.03473018 -7.33585114 361.51385054 -37 366 C-38.12245117 366.17660156 -39.24490234 366.35320312 -40.40136719 366.53515625 C-52.01447743 368.1920586 -63.53179945 368.39873513 -75.25 368.375 C-76.76802216 368.37418427 -76.76802216 368.37418427 -78.31671143 368.37335205 C-94.84530572 368.33261956 -110.77913999 367.42924222 -127 364 C-128.04188477 363.78037598 -129.08376953 363.56075195 -130.15722656 363.33447266 C-176.45049311 353.23685215 -218.86413721 330.87771242 -253 298 C-253.65935547 297.36787598 -254.31871094 296.73575195 -254.99804688 296.08447266 C-264.48630305 286.94002521 -273.2262044 277.64265991 -281 267 C-281.85806152 265.84894983 -282.71613451 264.69790823 -283.57421875 263.546875 C-289.61236829 255.35569386 -294.97095521 246.84195895 -300 238 C-300.36448242 237.36819824 -300.72896484 236.73639648 -301.10449219 236.08544922 C-314.39708875 212.86153493 -323.05104804 187.14561237 -328.4375 161 C-328.60169434 160.20553467 -328.76588867 159.41106934 -328.93505859 158.5925293 C-329.8804282 153.64918847 -330.1429558 149.03204411 -330 144 C-311.25521312 142.9675454 -296.57691764 147.37885561 -282.26904297 160.0625 C-272.11769641 169.32443544 -262.74062931 179.47078056 -254.29296875 190.3046875 C-253.53628906 191.19414062 -252.77960938 192.08359375 -252 193 C-251.57213951 193.65275909 -251.14427902 194.30551819 -250.70345306 194.97805786 C-247.58416626 199.01907232 -245.1554354 200.781119 -240.07583618 201.74337769 C-234.96521631 202.13377537 -229.85376671 202.05595927 -224.73242188 202 C-222.76080739 202.00761115 -220.78920382 202.01873426 -218.81762695 202.03309631 C-213.47901923 202.06206929 -208.1415957 202.04202374 -202.80303001 202.0130806 C-197.21891923 201.99117377 -191.63500018 202.01447918 -186.05090332 202.03295898 C-175.48288938 202.061078 -164.91532957 202.04862118 -154.34732866 202.02153492 C-142.31345043 201.99267099 -130.27976706 202.00911915 -118.2458868 202.02934647 C-93.49714574 202.06993199 -68.7487034 202.05370212 -44 202 C-44.32368057 201.21751389 -44.64736115 200.43502777 -44.98085022 199.62882996 C-47.6773276 192.67344356 -47.16262202 182.82599915 -45.01953125 175.7734375 C-43.83149196 173.35349285 -42.56155989 171.19426088 -41 169 C-40.34 168.05125 -39.68 167.1025 -39 166.125 C-36.83209705 163.82160312 -34.48377399 161.9527039 -32 160 C-37.45888869 160.5688864 -42.91720665 161.14286555 -48.375 161.72216797 C-50.02591182 161.89690175 -51.67693801 162.0705617 -53.328125 162.24267578 C-63.13132902 163.26601556 -72.87720801 164.52506934 -82.62915039 165.95800781 C-88.73884436 166.84698293 -94.83761123 167.58147711 -101 168 C-99.73734902 159.0319405 -92.99301066 150.5254993 -86 145 C-70.17498225 133.99218325 -55.8941256 131.45656002 -37 134 C-48.80618188 124.73944512 -60.7270446 115.64639355 -72.75488281 106.67578125 C-76.1745239 104.12332187 -79.58750935 101.56200742 -83 99 C-82 97 -82 97 -79.296875 95.9296875 C-62.11779991 90.82137222 -47.81454558 92.71725223 -32.12890625 101.19140625 C-23.72674121 106.04808841 -17.36817535 113.2636493 -13 122 C-12.56429688 120.9378125 -12.12859375 119.875625 -11.6796875 118.78125 C-5.51515072 104.03518975 -5.51515072 104.03518975 0 98 C0.85658203 97.00806641 0.85658203 97.00806641 1.73046875 95.99609375 C8.43397333 88.7120795 16.63192876 84.02525857 26 81 C7.65561618 77.82571391 -10.68942022 74.6706664 -29.078125 71.76171875 C-29.92568359 71.62685059 -30.77324219 71.49198242 -31.64648438 71.35302734 C-33.79794898 71.03030765 -35.94883896 70.77181269 -38.109375 70.51953125 C-39.06328125 70.34808594 -40.0171875 70.17664063 -41 70 C-41.33 69.34 -41.66 68.68 -42 68 C-33.09335693 56.64550469 -21.07218828 49.28063285 -7 46 C9.39411242 44.35431788 23.77554326 46.49802586 38 55 C31.72715476 46.02730379 25.38707051 37.11353738 18.875 28.3125 C9.9132605 16.18395049 9.9132605 16.18395049 6.25 11.125 C5.84378418 10.57239502 5.43756836 10.01979004 5.01904297 9.45043945 C2.83779747 6.42019771 1.22435243 3.52978201 0 0 Z " fill="#A45040" transform="translate(332,144)"/>
<path d="M0 0 C18.74478688 -1.0324546 33.42308236 3.37885561 47.73095703 16.0625 C57.01190722 24.53029892 65.67378432 33.73688615 73.5 43.5625 C87.70977695 61.20760764 104.5634989 75.49923677 127.61611938 78.74887085 C135.44636893 79.57374601 143.39233617 79.17529491 151.25 79 C168.56529229 78.61670295 183.63123706 78.42978233 197.11328125 90.96484375 C201.70315984 95.90425217 205.57230838 101.42135301 209.41235352 106.95141602 C213.17707807 112.36778154 216.81859412 117.6042215 222.4375 121.25 C223.15808594 121.72953125 223.87867188 122.2090625 224.62109375 122.703125 C237.2552073 129.59068772 251.95781434 125.45417126 265.02734375 121.91015625 C285.95225711 116.37264419 301.20500593 118.94137968 320 129.5625 C336.97250265 139.08566171 353.609795 141.41563676 372.93359375 138.2109375 C376.22373621 137.8130821 376.70742231 137.8050942 379.609375 139.73828125 C380.66898437 141.01251953 380.66898437 141.01251953 381.75 142.3125 C390.04251163 151.47655845 399.82130157 158.15331943 410.41796875 164.40625 C413 166 413 166 415 168 C385.80959847 193.53372056 347.81265287 210.55968735 310.1875 218.875 C309.37949951 219.05385742 308.57149902 219.23271484 307.73901367 219.41699219 C304.83402642 220.01071221 301.92564811 220.51674193 299 221 C298.25004761 221.12388092 297.50009521 221.24776184 296.72741699 221.37539673 C282.5640162 223.65677628 268.71040969 224.53115219 254.375 224.4375 C253.37797058 224.43445862 252.38094116 224.43141724 251.35369873 224.42828369 C234.95202091 224.35465726 219.09390461 223.40240265 203 220 C201.95811523 219.78037598 200.91623047 219.56075195 199.84277344 219.33447266 C153.54950689 209.23685215 111.13586279 186.87771242 77 154 C76.34064453 153.36787598 75.68128906 152.73575195 75.00195312 152.08447266 C65.51369695 142.94002521 56.7737956 133.64265991 49 123 C48.14193848 121.84894983 47.28386549 120.69790823 46.42578125 119.546875 C40.38763171 111.35569386 35.02904479 102.84195895 30 94 C29.63551758 93.36819824 29.27103516 92.73639648 28.89550781 92.08544922 C15.60291125 68.86153493 6.94895196 43.14561237 1.5625 17 C1.3162085 15.808302 1.3162085 15.808302 1.06494141 14.5925293 C0.1195718 9.64918847 -0.1429558 5.03204411 0 0 Z " fill="#6E6F83" transform="translate(2,288)"/>
<path d="M0 0 C17.61697074 -0.82365058 33.26841991 2.83405185 47.3125 14.25 C57.36080633 23.72593445 63.54264111 35.78895384 67 49 C67.72703125 47.948125 67.72703125 47.948125 68.46875 46.875 C78.86578581 32.15919548 91.78056657 21.24483272 110 18 C122.46987909 16.56917656 133.27595054 18.8446407 145 23 C143.89158486 26.32524542 143.34836837 26.74479055 140.59765625 28.6796875 C139.88150146 29.18959229 139.16534668 29.69949707 138.42749023 30.22485352 C137.64704346 30.76940186 136.86659668 31.3139502 136.0625 31.875 C134.4086882 33.04794311 132.75504704 34.22112684 131.1015625 35.39453125 C130.25239258 35.99346191 129.40322266 36.59239258 128.52832031 37.20947266 C124.64159951 39.96200359 120.79162668 42.76462359 116.9375 45.5625 C108.34249996 51.78058306 99.68032152 57.90179944 91 64 C92.16917969 63.67515625 93.33835937 63.3503125 94.54296875 63.015625 C110.12283607 59.1369336 126.16989336 63.02723264 139.9375 70.5625 C151.02384606 77.54150278 158.597822 87.23594475 164 99 C164 99.99 164 100.98 164 102 C156.96149689 101.27415437 149.99024898 100.28017157 143 99.1875 C141.30508423 98.9246521 141.30508423 98.9246521 139.57592773 98.65649414 C129.68378505 97.11777742 119.7981681 95.53862665 109.9140625 93.94921875 C101.61226002 92.61456319 93.30622178 91.30681916 85 90 C85.50789062 90.32871094 86.01578125 90.65742188 86.5390625 90.99609375 C94.9412119 96.80207339 100.42947916 105.08098457 103 115 C103.923888 122.83747681 102.73264633 129.64788012 100 137 C96.96017053 135.68472791 95.32830328 134.49276535 93.4765625 131.75390625 C93.01991211 131.09084473 92.56326172 130.4277832 92.09277344 129.74462891 C91.6084082 129.02452637 91.12404297 128.30442383 90.625 127.5625 C89.56179298 126.01822338 88.49660972 124.47530592 87.4296875 122.93359375 C86.87249023 122.12647949 86.31529297 121.31936523 85.74121094 120.48779297 C82.8185738 116.31201163 79.78476673 112.21964345 76.75 108.125 C75.86538086 106.92738037 75.86538086 106.92738037 74.96289062 105.70556641 C72.42741636 102.27383479 69.8860987 98.84660949 67.3359375 95.42578125 C66.24152344 93.94658203 66.24152344 93.94658203 65.125 92.4375 C64.50882813 91.61121094 63.89265625 90.78492188 63.2578125 89.93359375 C62 88 62 88 62 86 C61.05125 86.66 60.1025 87.32 59.125 88 C56 90 56 90 54 90 C54 109.14 54 128.28 54 148 C45.09 148.99 45.09 148.99 36 150 C30.1637211 150.80020785 30.1637211 150.80020785 24.33203125 151.6328125 C20.86150688 152.01526184 17.48865596 152.06205995 14 152 C14 152.66 14 153.32 14 154 C14.8765625 154.09410156 15.753125 154.18820312 16.65625 154.28515625 C23.28002611 155.70122054 28.86311538 160.24532299 32.97265625 165.54296875 C34.47264278 167.97906481 35.78136892 170.41315857 37 173 C37.45375 173.94875 37.9075 174.8975 38.375 175.875 C39.37757369 180.88786843 39.14835387 185.90651726 39 191 C32.91246386 187.05927612 27.12175978 182.87458857 21.4375 178.375 C19.87053308 177.14749047 18.30280827 175.92094786 16.734375 174.6953125 C15.94998047 174.08204102 15.16558594 173.46876953 14.35742188 172.83691406 C10.65254306 169.9500553 6.92907809 167.08910228 3.1875 164.25 C2.53644287 163.74903809 1.88538574 163.24807617 1.21459961 162.73193359 C-2.07390556 160.24882069 -5.03481779 158.29906922 -9 157 C-9.35078613 157.48130371 -9.70157227 157.96260742 -10.06298828 158.45849609 C-17.32460827 168.40646854 -24.67365163 178.26795289 -32.29150391 187.94677734 C-32.83597168 188.63980957 -33.38043945 189.3328418 -33.94140625 190.046875 C-34.45848145 190.70494141 -34.97555664 191.36300781 -35.50830078 192.04101562 C-36.99520041 193.9936969 -38.38871319 195.99229336 -39.77734375 198.015625 C-40.51082031 199.00046875 -41.24429688 199.9853125 -42 201 C-42.66 201 -43.32 201 -44 201 C-47.872492 195.18348591 -46.78512212 185.72460907 -46 179 C-44.85034587 175.21209576 -43.28777134 172.21471318 -41 169 C-40.34 168.05125 -39.68 167.1025 -39 166.125 C-36.83209705 163.82160312 -34.48377399 161.9527039 -32 160 C-37.45888869 160.5688864 -42.91720665 161.14286555 -48.375 161.72216797 C-50.02591182 161.89690175 -51.67693801 162.0705617 -53.328125 162.24267578 C-63.13132902 163.26601556 -72.87720801 164.52506934 -82.62915039 165.95800781 C-88.73884436 166.84698293 -94.83761123 167.58147711 -101 168 C-99.73734902 159.0319405 -92.99301066 150.5254993 -86 145 C-70.17498225 133.99218325 -55.8941256 131.45656002 -37 134 C-48.80618188 124.73944512 -60.7270446 115.64639355 -72.75488281 106.67578125 C-76.1745239 104.12332187 -79.58750935 101.56200742 -83 99 C-82 97 -82 97 -79.296875 95.9296875 C-62.11779991 90.82137222 -47.81454558 92.71725223 -32.12890625 101.19140625 C-23.72674121 106.04808841 -17.36817535 113.2636493 -13 122 C-12.56429687 120.9378125 -12.12859375 119.875625 -11.6796875 118.78125 C-5.51515072 104.03518975 -5.51515072 104.03518975 0 98 C0.57105469 97.33871094 1.14210938 96.67742187 1.73046875 95.99609375 C8.43397333 88.7120795 16.63192876 84.02525857 26 81 C7.65561618 77.82571391 -10.68942022 74.6706664 -29.078125 71.76171875 C-29.92568359 71.62685059 -30.77324219 71.49198242 -31.64648438 71.35302734 C-33.79794898 71.03030765 -35.94883896 70.77181269 -38.109375 70.51953125 C-39.06328125 70.34808594 -40.0171875 70.17664063 -41 70 C-41.33 69.34 -41.66 68.68 -42 68 C-33.09335693 56.64550469 -21.07218828 49.28063285 -7 46 C9.39411242 44.35431788 23.77554326 46.49802586 38 55 C31.72715476 46.02730379 25.38707051 37.11353738 18.875 28.3125 C9.9132605 16.18395049 9.9132605 16.18395049 6.25 11.125 C5.64067627 10.29609253 5.64067627 10.29609253 5.01904297 9.45043945 C2.83779747 6.42019771 1.22435243 3.52978201 0 0 Z " fill="#02893B" transform="translate(332,144)"/>
<path d="M0 0 C13.05399937 2.85745595 25.97056657 4.07386944 39.31518555 4.01293945 C40.05523834 4.01277832 40.79529114 4.01261719 41.55776978 4.01245117 C53.78723201 3.99435141 65.8842199 3.22998669 78.06518555 2.20043945 C110.68448373 -0.51248329 144.7061524 -2.25214218 176.37768555 7.70043945 C174.03509252 10.04303248 171.89509234 10.89810726 168.87768555 12.26293945 C156.5083061 18.39578148 148.38238976 27.89459907 143.37768555 40.70043945 C144.39572266 40.52085693 145.41375977 40.34127441 146.46264648 40.15625 C158.43134392 38.08332693 170.43655342 36.43319985 182.48657227 34.91064453 C185.66583838 34.50810882 188.84402979 34.09772745 192.0222168 33.68676758 C194.06252216 33.42653719 196.10288471 33.16675471 198.14331055 32.9074707 C199.08394348 32.78563919 200.02457642 32.66380768 200.99371338 32.5382843 C205.48777264 31.97582167 209.83702279 31.55531484 214.37768555 31.70043945 C209.37768555 36.70043945 209.37768555 36.70043945 206.87768555 38.88793945 C198.95801589 47.79756781 198.72881839 56.24616763 199.18481445 67.63916016 C199.40925155 70.03779607 199.89238654 72.34213032 200.37768555 74.70043945 C174.491178 74.95762178 148.60486244 75.15148511 122.71733379 75.27037334 C110.69670036 75.32704759 98.67686158 75.40428669 86.65673828 75.53027344 C76.17757003 75.64005641 65.69897737 75.71091342 55.21925002 75.7354129 C49.67207523 75.74973043 44.12654678 75.78327452 38.57990074 75.86347008 C33.35337689 75.93842133 28.129169 75.96111164 22.90215874 75.94462395 C20.98932025 75.94763772 19.0764003 75.96935568 17.16402817 76.01169968 C1.23173198 76.34701996 1.23173198 76.34701996 -4.66936129 70.93427259 C-6.83854132 68.64989213 -8.74348293 66.22691822 -10.62231445 63.70043945 C-12.05705753 61.94817847 -13.49414248 60.19782908 -14.93481445 58.45043945 C-15.65282227 57.55196289 -16.37083008 56.65348633 -17.1105957 55.7277832 C-31.22941368 38.71054536 -47.87976886 20.29847039 -71.05102539 17.39624023 C-76.2378685 16.93916594 -81.41715715 16.76602563 -86.62231445 16.70043945 C-87.50252814 9.98881007 -87.73613401 3.46637964 -87.62231445 -3.29956055 C-59.04258814 -13.95640765 -28.69100022 -6.39192549 0 0 Z " fill="#D0F5FE" transform="translate(87.622314453125,271.299560546875)"/>
<path d="M0 0 C3.21860561 3.04097583 5.29737456 6.60656261 7.5625 10.375 C13.82809175 20.57889791 21.06512393 29.77531921 28.75 38.9375 C29.18562256 39.45723389 29.62124512 39.97696777 30.07006836 40.51245117 C32.3731571 43.21850413 34.75742867 45.74502554 37.328125 48.19140625 C40 51 40 51 40 54 C38.20703125 55.32421875 38.20703125 55.32421875 35.8125 56.6875 C30.43767652 60.118598 26.99005042 63.90047008 25.46751404 70.20487976 C25.29317337 71.01214005 25.1188327 71.81940033 24.93920898 72.65112305 C24.76236069 73.46461716 24.58551239 74.27811127 24.40330505 75.11625671 C24.27021439 75.737892 24.13712372 76.35952728 24 77 C25.27415771 76.9371582 26.54831543 76.87431641 27.86108398 76.80957031 C32.67040443 76.58940228 37.47930082 76.45357944 42.29223633 76.34082031 C44.35940855 76.28113017 46.42608906 76.19973678 48.49145508 76.09472656 C63.81835538 75.33600595 72.62385186 77.57529863 84.32125854 87.60656738 C87.59839509 90.32674144 91.31120871 92.27097231 95.0625 94.25 C95.80886719 94.6521875 96.55523437 95.054375 97.32421875 95.46875 C98.83420263 96.27748713 100.34729723 97.08044899 101.86376953 97.87695312 C103.84388539 98.91792832 105.81073122 99.98069563 107.77734375 101.046875 C127.72571166 111.64987192 148.95549322 118.40472818 171 123 C172.43766241 123.31827767 173.87518082 123.63720712 175.3125 123.95703125 C194.54716272 127.95768343 214.42582615 128.36044006 234 129 C234.33 128.34 234.66 127.68 235 127 C236.41539062 128.14275391 236.41539062 128.14275391 237.859375 129.30859375 C245.06981886 135.11202974 252.32117097 140.80981247 259.8046875 146.2578125 C262 148 262 148 263 150 C261.741875 149.835 260.48375 149.67 259.1875 149.5 C251.7196282 148.69487007 244.77777851 148.53659245 237.4375 150.25 C232.00557229 151.24969841 227.77359223 150.5912224 222.5 149.3125 C221.72406494 149.12494141 220.94812988 148.93738281 220.14868164 148.74414062 C218.54706695 148.35293647 216.94575053 147.96050929 215.34472656 147.56689453 C187.7596105 140.89752349 158.20568117 143.34872445 130.18972778 145.71057129 C107.71337791 147.59128987 84.21880958 149.29946798 62.00048828 144.6171875 C58.02876093 143.80022031 54.04439955 143.05728307 50.05859375 142.3125 C44.33630891 141.2419089 38.61601313 140.16243116 32.89927673 139.06257629 C29.26787203 138.3660228 25.63411758 137.68222949 22 137 C20.30194214 136.67781494 20.30194214 136.67781494 18.56958008 136.34912109 C12.18625735 135.20005138 6.04622708 134.67992559 -0.4375 134.75 C-1.34274414 134.75531738 -2.24798828 134.76063477 -3.18066406 134.76611328 C-13.42164575 134.91042965 -23.04806956 136.75820251 -33 139 C-33.80456858 90.87029523 -26.47142067 42.93687474 -1 1 C-0.67 0.67 -0.34 0.34 0 0 Z " fill="#63DBF9" transform="translate(33,129)"/>
<path d="M0 0 C18.74478688 -1.0324546 33.42308236 3.37885561 47.73095703 16.0625 C57.01190722 24.53029892 65.67378432 33.73688615 73.5 43.5625 C87.70977695 61.20760764 104.5634989 75.49923677 127.61611938 78.74887085 C135.44636893 79.57374601 143.39233617 79.17529491 151.25 79 C168.56529229 78.61670295 183.63123706 78.42978233 197.11328125 90.96484375 C201.70315984 95.90425217 205.57230838 101.42135301 209.41235352 106.95141602 C213.17707807 112.36778154 216.81859412 117.6042215 222.4375 121.25 C223.15808594 121.72953125 223.87867188 122.2090625 224.62109375 122.703125 C231.03923862 126.20201514 236.73956766 126.24971831 243.875 126.125 C247.21625 126.08375 250.5575 126.0425 254 126 C254 138.21 254 150.42 254 163 C217.86190188 170.50921519 217.86190188 170.50921519 203.2109375 161.234375 C197.77590775 157.06368752 193.35862995 152.24951476 189 147 C179.12375609 135.62200166 170.59689085 127.17326973 155 125 C153.06276156 124.93180598 151.123369 124.91181221 149.18505859 124.93408203 C148.06304047 124.94384064 146.94102234 124.95359924 145.78500366 124.96365356 C143.98490341 124.98551224 143.98490341 124.98551224 142.1484375 125.0078125 C139.57943109 125.02533743 137.01042041 125.04224488 134.44140625 125.05859375 C130.41281578 125.08823821 126.38437718 125.12380309 122.35595703 125.17138672 C118.45342415 125.2140295 114.5511412 125.23725598 110.6484375 125.2578125 C109.46051605 125.27643341 108.2725946 125.29505432 107.04867554 125.3142395 C90.29294881 125.36496917 78.77603819 120.68919425 67 109 C61.92961119 103.74110125 57.08915929 98.27572632 52.3125 92.75 C51.21056299 91.49803401 50.10642304 90.24800324 49 89 C48.43539062 88.34515625 47.87078125 87.6903125 47.2890625 87.015625 C39.84676712 78.91388572 30.05798475 74.16413382 20 70 C19.67 70.66 19.34 71.32 19 72 C11.40195353 54.15939218 5.46405755 36.01382911 1.5625 17 C1.3984668 16.2059375 1.23443359 15.411875 1.06542969 14.59375 C0.11943398 9.65002297 -0.14296902 5.0325096 0 0 Z " fill="#7E7F92" transform="translate(2,288)"/>
<path d="M0 0 C2.33189891 3.49784837 3.04028774 6.85431075 4 10.875 C11.56555008 40.62507078 22.93084784 69.99002039 41 95 C41.42909668 95.59441895 41.85819336 96.18883789 42.30029297 96.80126953 C47.26137072 103.59199125 52.60188535 109.96323867 58.3828125 116.07421875 C60 118 60 118 60 120 C37.28555932 123.33398115 19.82469164 120.46478508 -0.03857422 109.37304688 C-19.79293527 98.36543813 -35.43651232 99.69926035 -56.69921875 105.58984375 C-66.97640529 108.41274264 -80.00921835 110.74871606 -89.77539062 105.35302734 C-97.56569081 100.61489701 -102.96793067 95.02543137 -108.125 87.5625 C-116.98917118 74.96974888 -124.62300435 65.28830231 -140.2199707 61.57348633 C-149.21631885 60.20860731 -158.43751545 60.85917616 -167.5078125 61.06152344 C-192.13392423 61.56141246 -210.80576403 57.46888437 -229 40 C-229 39.67 -229 39.34 -229 39 C-162.67 38.67 -96.34 38.34 -28 38 C-27.34 36.68 -26.68 35.36 -26 34 C-24.91741403 32.46776945 -23.79915319 30.9604382 -22.65625 29.47265625 C-21.65851563 28.16880981 -21.65851563 28.16880981 -20.640625 26.83862305 C-19.93421875 25.92250244 -19.2278125 25.00638184 -18.5 24.0625 C-17.78328125 23.12768799 -17.0665625 22.19287598 -16.328125 21.22973633 C-14.22191584 18.48404077 -12.1113805 15.74171982 -10 13 C-8.90600576 11.5757084 -7.81222755 10.15125082 -6.71875 8.7265625 C-4.48284052 5.81486865 -2.2430206 2.90622141 0 0 Z " fill="#FEA77A" transform="translate(318,307)"/>
<path d="M0 0 C16.97250265 9.52316171 33.609795 11.85313676 52.93359375 8.6484375 C56.22373621 8.2505821 56.70742231 8.2425942 59.609375 10.17578125 C60.66898438 11.45001953 60.66898438 11.45001953 61.75 12.75 C70.04251163 21.91405845 79.82130157 28.59081943 90.41796875 34.84375 C93 36.4375 93 36.4375 95 38.4375 C62.8797992 66.53400394 20.68557865 84.07862156 -21 91.4375 C-22.36584229 91.68089111 -22.36584229 91.68089111 -23.75927734 91.92919922 C-37.96534427 94.37122137 -51.41285085 94.4375 -66 94.4375 C-66 61.7675 -66 29.0975 -66 -4.5625 C-37.30241889 -11.73689528 -24.07075417 -13.60247177 0 0 Z " fill="#605F74" transform="translate(322,417.5625)"/>
<path d="M0 0 C20.80621667 2.88792913 41.52974461 6.24391119 62.25 9.6875 C63.54156006 9.90196777 64.83312012 10.11643555 66.16381836 10.33740234 C67.37303955 10.53930176 68.58226074 10.74120117 69.828125 10.94921875 C70.8996582 11.12799561 71.97119141 11.30677246 73.07519531 11.4909668 C75.7268433 11.95245979 78.36368201 12.45842844 81 13 C80.505 11.02 80.505 11.02 80 9 C81.33038449 8.6550855 82.66457061 8.32483418 84 8 C84.7425 7.814375 85.485 7.62875 86.25 7.4375 C89.86918665 6.86172031 93.33441296 6.97381724 97 7 C97.75539667 44.31659533 93.8908545 77.3274365 82 113 C53.29 113 24.58 113 -5 113 C-10.76356742 95.70929775 -10.76356742 95.70929775 -12.1875 87.8125 C-12.34766602 86.96445801 -12.50783203 86.11641602 -12.67285156 85.24267578 C-12.98477184 83.57793629 -13.29183874 81.91227761 -13.59326172 80.24560547 C-13.94602391 78.29800243 -14.31707295 76.35372857 -14.69140625 74.41015625 C-15.83838282 68.17798284 -16.18637863 62.33687354 -16 56 C-10.06 55.34 -4.12 54.68 2 54 C-2.38607722 48.38649411 -2.38607722 48.38649411 -8.13671875 44.34375 C-14.94893075 40.66757406 -14.94893075 40.66757406 -17 37 C-19.01915644 26.97900136 -17.76748288 15.98558602 -16 6 C-11.71168122 10.01241592 -8.38361263 14.39995453 -5 19.1875 C-4.44401123 19.96472412 -3.88802246 20.74194824 -3.31518555 21.54272461 C-1.53922023 24.02548976 0.23085819 26.512369 2 29 C4.39050334 32.35801239 6.7872651 35.71143924 9.1875 39.0625 C9.73986328 39.84197998 10.29222656 40.62145996 10.86132812 41.42456055 C11.37501953 42.14168213 11.88871094 42.85880371 12.41796875 43.59765625 C12.86938232 44.23195557 13.3207959 44.86625488 13.78588867 45.51977539 C14.95095575 47.14545374 14.95095575 47.14545374 17 48 C20.38321491 34.34631125 19.5719087 24.353339 12.87109375 11.90234375 C10.04023518 7.41439724 6.28273421 4.90333213 1.79296875 2.1640625 C1.20128906 1.77992188 0.60960937 1.39578125 0 1 C0 0.67 0 0.34 0 0 Z " fill="#C4F1F8" transform="translate(415,233)"/>
<path d="M0 0 C17.61697074 -0.82365058 33.26841991 2.83405185 47.3125 14.25 C57.36080633 23.72593445 63.54264111 35.78895384 67 49 C67.4846875 48.29875 67.969375 47.5975 68.46875 46.875 C78.86578581 32.15919548 91.78056657 21.24483272 110 18 C122.46987909 16.56917656 133.27595054 18.8446407 145 23 C143.89158486 26.32524542 143.34836837 26.74479055 140.59765625 28.6796875 C139.88150146 29.18959229 139.16534668 29.69949707 138.42749023 30.22485352 C137.64704346 30.76940186 136.86659668 31.3139502 136.0625 31.875 C134.4086882 33.04794311 132.75504704 34.22112684 131.1015625 35.39453125 C130.25239258 35.99346191 129.40322266 36.59239258 128.52832031 37.20947266 C124.64159951 39.96200359 120.79162668 42.76462359 116.9375 45.5625 C108.34249996 51.78058306 99.68032152 57.90179944 91 64 C92.16917969 63.67515625 93.33835937 63.3503125 94.54296875 63.015625 C110.12283607 59.1369336 126.16989336 63.02723264 139.9375 70.5625 C151.02384606 77.54150278 158.597822 87.23594475 164 99 C164 99.99 164 100.98 164 102 C156.96149689 101.27415437 149.99024898 100.28017157 143 99.1875 C141.30508423 98.9246521 141.30508423 98.9246521 139.57592773 98.65649414 C129.68378505 97.11777742 119.7981681 95.53862665 109.9140625 93.94921875 C101.61226002 92.61456319 93.30622178 91.30681916 85 90 C85.50789063 90.32871094 86.01578125 90.65742188 86.5390625 90.99609375 C94.9412119 96.80207339 100.42947916 105.08098457 103 115 C103.923888 122.83747681 102.73264633 129.64788012 100 137 C96.96017053 135.68472791 95.32830328 134.49276535 93.4765625 131.75390625 C92.79158691 130.75931396 92.79158691 130.75931396 92.09277344 129.74462891 C91.6084082 129.02452637 91.12404297 128.30442383 90.625 127.5625 C89.56179298 126.01822338 88.49660972 124.47530592 87.4296875 122.93359375 C86.87249023 122.12647949 86.31529297 121.31936523 85.74121094 120.48779297 C82.8185738 116.31201163 79.78476673 112.21964345 76.75 108.125 C76.16025391 107.32658691 75.57050781 106.52817383 74.96289062 105.70556641 C72.42741636 102.27383479 69.8860987 98.84660949 67.3359375 95.42578125 C66.60632813 94.43964844 65.87671875 93.45351562 65.125 92.4375 C64.50882812 91.61121094 63.89265625 90.78492188 63.2578125 89.93359375 C62 88 62 88 62 86 C61.34 86 60.68 86 60 86 C59.4328125 84.96617187 58.865625 83.93234375 58.28125 82.8671875 C56.28604234 79.37907445 54.00522608 76.27323411 51.5 73.125 C47.59204278 68.14578899 43.87486697 63.06358213 40.25 57.875 C35.93635085 51.70795522 31.54009009 45.61160852 27.0625 39.5625 C20.77215832 31.06196772 14.5454062 22.51822574 8.38183594 13.92529297 C7.50923884 12.70951546 6.6350945 11.49484562 5.75878906 10.28173828 C4.73041954 8.85780771 3.70861069 7.42914488 2.6875 6 C2.15511719 5.2575 1.62273437 4.515 1.07421875 3.75 C0 2 0 2 0 0 Z " fill="#01893B" transform="translate(332,144)"/>
<path d="M0 0 C0.09498779 0.67764404 0.18997559 1.35528809 0.2878418 2.0534668 C7.17593757 50.539938 21.6086497 95.87171282 56 132 C52.42394651 133.19201783 51.45910858 132.67693309 47.9375 131.5625 C42.60352111 130.15340304 37.72598634 129.72309385 32.25 129.75 C31.4854248 129.75112793 30.72084961 129.75225586 29.93310547 129.75341797 C26.12195535 129.80538456 22.44312109 130.03333695 18.67578125 130.62109375 C8.74375082 132.07925242 8.74375082 132.07925242 3.9453125 129.109375 C0.98488671 126.24120044 -1.49774541 123.26139725 -4 120 C-4.91790091 118.88863281 -5.83983185 117.78058266 -6.765625 116.67578125 C-9.63126256 113.20400883 -12.33987118 109.6309286 -15 106 C-15.41604492 105.43361816 -15.83208984 104.86723633 -16.26074219 104.28369141 C-28.40866876 87.49720286 -37.31622502 68.76386034 -44.18896484 49.27880859 C-44.91728014 47.23242239 -45.67682043 45.20281547 -46.45703125 43.17578125 C-48.86774365 36.78848587 -50.77660487 30.379865 -52.375 23.75 C-52.55514648 23.00975586 -52.73529297 22.26951172 -52.92089844 21.50683594 C-54.1249473 16.2498946 -54.1249473 16.2498946 -53 14 C-40.61042442 23.26079733 -28.26695878 32.57732311 -16 42 C-15.14451795 32.34255818 -17.21413485 24.28930542 -22.8984375 16.34765625 C-27.45551672 11.25694136 -33.3793903 7.69759223 -40 6 C-40 5.34 -40 4.68 -40 4 C-36.07277755 3.42030204 -32.14417154 2.85115995 -28.21411133 2.29101562 C-26.23376342 2.0066433 -24.25455764 1.714353 -22.27539062 1.421875 C-14.79086878 0.36077823 -7.55977107 -0.28389804 0 0 Z " fill="#FEA779" transform="translate(386,292)"/>
<path d="M0 0 C16.97250265 9.52316171 33.609795 11.85313676 52.93359375 8.6484375 C56.22373621 8.2505821 56.70742231 8.2425942 59.609375 10.17578125 C60.66898438 11.45001953 60.66898438 11.45001953 61.75 12.75 C70.04251163 21.91405845 79.82130157 28.59081943 90.41796875 34.84375 C93 36.4375 93 36.4375 95 38.4375 C93.93106782 39.47340338 92.84421512 40.49083942 91.75 41.5 C91.14671875 42.06847656 90.5434375 42.63695312 89.921875 43.22265625 C88 44.4375 88 44.4375 86.16381836 44.03491211 C85.4497583 43.83776611 84.73569824 43.64062012 84 43.4375 C69.07989453 41.89224535 55.92313795 44.20203009 41.734375 48.7109375 C27.61738167 53.15732898 16.33635935 53.75634118 3.0769043 46.87451172 C-2.16801792 44.03139957 -7.14912829 40.83144168 -12.11474609 37.53125 C-25.16436305 28.96472884 -38.37950372 27.93211877 -53.4375 30.9375 C-54.11151855 31.08026367 -54.78553711 31.22302734 -55.47998047 31.37011719 C-59.15657685 32.14384729 -62.18691534 32.4375 -66 32.4375 C-66 20.2275 -66 8.0175 -66 -4.5625 C-40.01210146 -11.73157546 -23.83379534 -13.46856546 0 0 Z " fill="#6E6F82" transform="translate(322,417.5625)"/>
<path d="M0 0 C55.11 0 110.22 0 167 0 C167 22.44 167 44.88 167 68 C153.55467586 69.92076059 143.75240999 70.15363035 132.68359375 61.9375 C127.78943044 58.08229865 124.39706377 53.6593716 120.875 48.5625 C112.01082882 35.96974888 104.37699565 26.28830231 88.7800293 22.57348633 C79.78368115 21.20860731 70.56248455 21.85917616 61.4921875 22.06152344 C36.86607577 22.56141246 18.19423597 18.46888437 0 1 C0 0.67 0 0.34 0 0 Z " fill="#FEBFA4" transform="translate(89,346)"/>
<path d="M0 0 C19.58771922 -0.07074759 39.17541177 -0.12330455 58.76323318 -0.15543652 C67.8625445 -0.17076656 76.9617755 -0.19158292 86.06103516 -0.22631836 C94.01159281 -0.25665373 101.9620922 -0.27567498 109.91270614 -0.28226548 C114.10466104 -0.28610492 118.29644956 -0.29481937 122.48834991 -0.31719017 C145.48614109 -0.43522992 168.11142069 0.74599599 191 3 C191 10.92 191 18.84 191 27 C169.2857763 27.25496801 147.57191487 27.45110629 125.85649395 27.56993389 C115.77286919 27.62658207 105.6901933 27.70376884 95.60717773 27.82983398 C86.81561516 27.93969976 78.02473992 28.01049296 69.23250991 28.03497344 C64.57945589 28.04927781 59.92836759 28.08273029 55.27594566 28.16303062 C50.88977987 28.23811674 46.50637448 28.26064749 42.119627 28.24418449 C40.51637472 28.24719254 38.91302311 28.2688348 37.31032944 28.31126022 C29.88773753 28.49798514 23.7716871 28.4528224 18.08343107 23.1422804 C15.91159876 20.86855878 13.93720871 18.47496523 12 16 C11.02166176 14.8742795 10.04270057 13.74909928 9.0625 12.625 C8.381875 11.75875 7.70125 10.8925 7 10 C4.27351787 6.52153401 4.27351787 6.52153401 1.25 3.3125 C0 2 0 2 0 0 Z " fill="#FEFEFE" transform="translate(65,319)"/>
<path d="M0 0 C7.62012455 5.58430023 15.36205493 13.27687929 17 23 C17.83815526 35.32500441 17.13400705 45.37749684 9 55.3125 C3.22711842 61.3347087 -5.28216774 66.5829912 -13.78515625 67.203125 C-26.4655346 67.38448917 -34.60074435 64.89055682 -43.875 56.25390625 C-50.55180089 49.33248119 -54.21934797 41.06863368 -54.5625 31.4375 C-54.08994566 21.02886877 -50.33923154 12.41146807 -43 5 C-40.15359763 2.66042107 -37.22915285 0.76753629 -34 -1 C-33.40960938 -1.3403125 -32.81921875 -1.680625 -32.2109375 -2.03125 C-22.82258799 -6.49795373 -8.66296513 -5.44738993 0 0 Z " fill="#FDF8BB" transform="translate(225,51)"/>
<path d="M0 0 C4.47763467 4.16478683 6.60752076 8.71615686 9.1875 14.1875 C9.66727295 15.20271729 10.1470459 16.21793457 10.64135742 17.26391602 C24.32644585 46.83683745 32.69649245 78.41231127 34 111 C32.10507994 111.33848652 30.20901534 111.67056911 28.3125 112 C27.25675781 112.185625 26.20101562 112.37125 25.11328125 112.5625 C23.57220703 112.7790625 23.57220703 112.7790625 22 113 C21.13246094 113.15339844 20.26492188 113.30679688 19.37109375 113.46484375 C17 113 17 113 14.859375 110.25390625 C14.14265954 109.03130367 13.44029793 107.80021034 12.75 106.5625 C4.27846095 92.47938791 -7.61560384 83.61296584 -23.546875 79.3125 C-34.27918014 77.02632849 -45.42967416 77.03289099 -56 80 C-52.92112441 76.72032817 -49.55124499 74.1225548 -45.875 71.5625 C-44.61679563 70.67503448 -43.35900329 69.7869846 -42.1015625 68.8984375 C-41.43543945 68.42889648 -40.76931641 67.95935547 -40.08300781 67.47558594 C-35.69624103 64.36803573 -31.3479872 61.20678691 -26.99389648 58.05371094 C-22.96766734 55.13945519 -18.93414742 52.2363256 -14.88671875 49.3515625 C-13.64390137 48.46271362 -13.64390137 48.46271362 -12.37597656 47.5559082 C-10.77747382 46.41304596 -9.17663808 45.27343829 -7.57324219 44.13745117 C-6.8568457 43.6241626 -6.14044922 43.11087402 -5.40234375 42.58203125 C-4.76804443 42.13061768 -4.13374512 41.6792041 -3.48022461 41.21411133 C-1.85454626 40.04904425 -1.85454626 40.04904425 -1 38 C-2.2375 37.731875 -3.475 37.46375 -4.75 37.1875 C-10.52867629 35.90642184 -16.26333702 34.45600583 -22 33 C-18.83700758 28.14768208 -15.57993419 23.39982249 -12.125 18.75 C-7.69602184 12.72214362 -3.83554899 6.41638382 0 0 Z " fill="#63DAF9" transform="translate(478,129)"/>
<path d="M0 0 C28.38 0 56.76 0 86 0 C82.61647727 11.27840909 82.61647727 11.27840909 80.6875 15.375 C80.25751709 16.28838135 79.82753418 17.2017627 79.38452148 18.14282227 C78.92762939 19.08569092 78.4707373 20.02855957 78 21 C77.27695679 22.49841431 77.27695679 22.49841431 76.53930664 24.02709961 C69.38489958 38.59487052 60.65879583 51.98675326 51 65 C50.35417969 65.87140625 49.70835937 66.7428125 49.04296875 67.640625 C47.70432344 69.43384542 46.35403667 71.21837281 45 73 C22.68458594 55.53576291 9.33880369 27.06832462 0 1 C0 0.67 0 0.34 0 0 Z " fill="#FEA87A" transform="translate(410,346)"/>
<path d="M0 0 C4.59268748 3.21049332 8.62553632 6.33033732 10 12 C10.70640625 11.84144531 11.4128125 11.68289062 12.140625 11.51953125 C22.72078877 9.59717909 30.25033493 11.39236702 39.1875 17 C43.49827968 20.8760792 46.05362829 26.63712475 48 32 C48 33.98 48 35.96 48 38 C7.74 38 -32.52 38 -74 38 C-72.56548306 32.26193226 -70.14877931 28.52580995 -65.3125 25.125 C-60.90787221 22.52867514 -56.99215507 22.47998385 -52 23 C-51.95875 22.030625 -51.9175 21.06125 -51.875 20.0625 C-50.67223031 12.00069238 -44.42683193 5.75254625 -38.40234375 0.73046875 C-26.6250864 -7.75298654 -12.33439596 -7.11188438 0 0 Z " fill="#FDFEFE" transform="translate(376,67)"/>
<path d="M0 0 C1.36227081 2.72454163 0.69448376 3.9824691 -0.0390625 6.91796875 C-0.29042969 7.92666016 -0.54179687 8.93535156 -0.80078125 9.97460938 C-1.07277344 11.03486328 -1.34476562 12.09511719 -1.625 13.1875 C-1.87378906 14.19748047 -2.12257813 15.20746094 -2.37890625 16.24804688 C-4.5153529 24.70348623 -7.22200059 32.66600176 -10 41 C-38.71 41 -67.42 41 -97 41 C-102.80357143 23.58928571 -102.80357143 23.58928571 -104 14 C-98.42437545 12.2837693 -92.86531672 11.16996243 -87.1171875 10.1953125 C-86.16121674 10.03114838 -85.20524597 9.86698425 -84.2203064 9.69784546 C-81.10627762 9.16696129 -77.99092749 8.64461906 -74.875 8.125 C-73.27996643 7.85804321 -73.27996643 7.85804321 -71.65270996 7.58569336 C-57.2232917 5.18575633 -42.79561714 3.05597561 -28.25 1.5 C-27.12606842 1.37748871 -27.12606842 1.37748871 -25.97943115 1.25250244 C-17.30547441 0.32157899 -8.72937969 -0.22414955 0 0 Z " fill="#DEF6FC" transform="translate(507,305)"/>
<path d="M0 0 C5.43148803 5.24462491 9.53631136 10.97110358 9.703125 18.64453125 C11.188125 18.52078125 11.188125 18.52078125 12.703125 18.39453125 C18.55094644 18.40639296 23.07941318 21.02081943 27.140625 25.08203125 C28.703125 27.64453125 28.703125 27.64453125 29.703125 32.64453125 C-7.256875 32.64453125 -44.216875 32.64453125 -82.296875 32.64453125 C-81.29893694 23.66308875 -80.1163311 18.99793006 -73.51953125 13.0390625 C-68.55317351 9.33331198 -64.01460086 7.36094991 -57.734375 7.45703125 C-56.80496094 7.46347656 -55.87554687 7.46992188 -54.91796875 7.4765625 C-52.57049398 7.6269968 -50.54632956 7.98292697 -48.296875 8.64453125 C-47.69875 7.63390625 -47.100625 6.62328125 -46.484375 5.58203125 C-42.60580855 0.12536614 -36.30586565 -4.24469746 -29.84375 -6.03515625 C-19.10315522 -7.38596725 -8.80184974 -6.807038 0 0 Z " fill="#FDFEFE" transform="translate(139.296875,173.35546875)"/>
<path d="M0 0 C3.48955934 1.26011865 6.35819231 2.36871744 9 5 C9.87405258 7.84217786 10.53527532 10.53614568 11.125 13.4375 C19.1557557 48.49228316 34.78726352 83.17796704 59 110 C60.25141116 111.45712258 61.50160357 112.91529371 62.75 114.375 C68.36644734 120.71695724 74.31606951 126.31077457 81.0625 131.4375 C81.79331787 131.99590576 82.52413574 132.55431152 83.27709961 133.12963867 C89.85909714 138.06631504 96.717193 142.17970029 104 146 C102.10696908 150.17002565 99.83508498 152.4186928 96 155 C90.76327622 154.82963982 87.12550709 152.52949706 82.9375 149.625 C82.28265625 149.17729248 81.6278125 148.72958496 80.953125 148.26831055 C64.02635778 136.49201154 48.90692553 121.83462275 37 105 C36.61070312 104.46568359 36.22140625 103.93136719 35.8203125 103.38085938 C16.3183075 76.51780347 0.13890808 40.35199262 -4.375 7.25 C-3.84241662 4.0544997 -2.14727849 2.34858585 0 0 Z " fill="#A44F3F" transform="translate(323,300)"/>
<path d="M0 0 C3.83151922 2.7580202 6.21204907 6.41174495 8.79125977 10.30932617 C9.90065892 11.91958236 11.01132358 13.52896745 12.12329102 15.13745117 C12.64487793 15.90250977 13.16646484 16.66756836 13.70385742 17.45581055 C16.01028849 20.77337483 18.53246513 23.90452593 21.09204102 27.02807617 C22.16625977 28.55932617 22.16625977 28.55932617 22.16625977 30.55932617 C21.01125977 30.24995117 19.85625977 29.94057617 18.66625977 29.62182617 C14.47232142 28.68165903 10.45361623 28.37679434 6.16235352 28.19995117 C-4.09790448 27.65829296 -14.14749849 25.9279187 -24.27124023 24.24682617 C-26.22578834 23.92819891 -28.18046078 23.61033346 -30.13525391 23.29321289 C-33.96410107 22.67107983 -37.79228986 22.04514529 -41.61987305 21.4152832 C-48.29210608 20.31799008 -54.96882197 19.24959121 -61.64624023 18.18432617 C-63.09051392 17.95169067 -63.09051392 17.95169067 -64.56396484 17.71435547 C-65.44318604 17.57296143 -66.32240723 17.43156738 -67.22827148 17.28588867 C-68.01927246 17.15730469 -68.81027344 17.0287207 -69.62524414 16.89624023 C-71.71630251 16.57724172 -73.80726358 16.32803061 -75.90795898 16.08276367 C-76.8734668 15.9100293 -77.83897461 15.73729492 -78.83374023 15.55932617 C-79.16374023 14.89932617 -79.49374023 14.23932617 -79.83374023 13.55932617 C-60.44123876 -11.16290254 -26.65681978 -15.21264925 0 0 Z " fill="#43AF40" transform="translate(369.833740234375,198.440673828125)"/>
<path d="M0 0 C8.45848543 7.08619968 14.4140564 15.01341794 19 25 C19 25.99 19 26.98 19 28 C11.96148723 27.27415337 4.9902792 26.28001137 -2 25.1875 C-3.13139404 25.01226807 -4.26278809 24.83703613 -5.4284668 24.65649414 C-14.26546628 23.28323876 -23.09587295 21.86962705 -31.92236328 20.43041992 C-36.89042486 19.62740123 -41.8567642 18.87020071 -46.84765625 18.22265625 C-55.18369617 17.13780432 -62.8766145 16.1275232 -70.69140625 12.8515625 C-74.41958286 11.47636368 -78.05144358 11.25892173 -82 11 C-77.77041089 6.43717053 -73.00668649 2.95902531 -67.9375 -0.625 C-66.34228474 -1.76279209 -64.74722724 -2.9008054 -63.15234375 -4.0390625 C-62.45101318 -4.53615723 -61.74968262 -5.03325195 -61.02709961 -5.54541016 C-59.6518654 -6.53223967 -58.30246919 -7.55590147 -56.97875977 -8.61083984 C-41.47131722 -19.49761937 -13.70485457 -9.9614952 0 0 Z " fill="#01A240" transform="translate(477,218)"/>
<path d="M0 0 C17.61697074 -0.82365058 33.26841991 2.83405185 47.3125 14.25 C57.54790814 23.90237856 65.9242895 37.76476434 67 52 C66.33874133 54.55632924 65.39921658 56.53061144 64.125 58.8359375 C60.40242355 65.99672691 60.51493462 75.11336981 60 83 C55.7309222 79.00508316 52.4257727 74.64480741 49.0625 69.875 C47.90843183 68.25718457 46.75345368 66.64001796 45.59765625 65.0234375 C45.00484863 64.19295898 44.41204102 63.36248047 43.80126953 62.50683594 C40.90535127 58.47657182 37.95258575 54.48883375 35 50.5 C29.36668167 42.87593087 23.79171049 35.21211766 18.2578125 27.515625 C15.97783293 24.34674552 13.67829041 21.19312367 11.3671875 18.046875 C10.77236572 17.23355713 10.17754395 16.42023926 9.56469727 15.58227539 C8.42620191 14.026263 7.28367871 12.47318684 6.13647461 10.92358398 C3.56392221 7.39748616 1.3470989 4.20658492 0 0 Z " fill="#01A240" transform="translate(332,144)"/>
<path d="M0 0 C0.09498779 0.67764404 0.18997559 1.35528809 0.2878418 2.0534668 C2.33586809 16.46987027 4.77494515 30.6048056 8.4909668 44.69018555 C9.16755169 47.76029091 9.55540324 50.88782267 10 54 C-7.16 54 -24.32 54 -42 54 C-43.32 50.7 -44.64 47.4 -46 44 C-46.37125 43.08089844 -46.7425 42.16179687 -47.125 41.21484375 C-49.30034932 35.5531087 -50.89484265 29.82608804 -52.3125 23.9375 C-52.49619141 23.18654053 -52.67988281 22.43558105 -52.86914062 21.66186523 C-54.12293892 16.24587784 -54.12293892 16.24587784 -53 14 C-40.61042442 23.26079733 -28.26695878 32.57732311 -16 42 C-15.14451795 32.34255818 -17.21413485 24.28930542 -22.8984375 16.34765625 C-27.45551672 11.25694136 -33.3793903 7.69759223 -40 6 C-40 5.34 -40 4.68 -40 4 C-36.07277755 3.42030204 -32.14417154 2.85115995 -28.21411133 2.29101562 C-26.23376342 2.0066433 -24.25455764 1.714353 -22.27539062 1.421875 C-14.79086878 0.36077823 -7.55977107 -0.28389804 0 0 Z " fill="#DEF6FB" transform="translate(386,292)"/>
<path d="M0 0 C11.31353317 0 17.55973509 2.7035665 25.73046875 10.48828125 C34.26117979 19.92932634 35.74048105 28.73085141 35.16601562 41.01708984 C34.45791884 49.47468121 30.41383916 55.75121929 24.6484375 61.765625 C17.34999369 67.92301418 9.44747786 71 0 71 C0 47.57 0 24.14 0 0 Z " fill="#FEEB98" transform="translate(207,47)"/>
<path d="M0 0 C1.28566729 2.57133459 1.12009778 4.397171 1.11352539 7.27587891 C1.11344986 8.3768692 1.11337433 9.4778595 1.11329651 10.61221313 C1.10813522 11.80494843 1.10297394 12.99768372 1.09765625 14.2265625 C1.0962413 15.44451508 1.09482635 16.66246765 1.09336853 17.91732788 C1.08775639 21.8199099 1.07520179 25.72243523 1.0625 29.625 C1.05748657 32.26562417 1.05292339 34.90624924 1.04882812 37.546875 C1.03778301 44.03126945 1.02103302 50.51563068 1 57 C-0.20438721 57.13132324 -1.40877441 57.26264648 -2.6496582 57.39794922 C-4.26253893 57.57513728 -5.87541292 57.75238665 -7.48828125 57.9296875 C-8.27819458 58.01565186 -9.06810791 58.10161621 -9.88195801 58.19018555 C-16.1638558 58.8826275 -22.41400149 59.72033692 -28.66796875 60.6328125 C-32.13849312 61.01526184 -35.51134404 61.06205995 -39 61 C-39 61.66 -39 62.32 -39 63 C-40.18078125 62.98839844 -41.3615625 62.97679687 -42.578125 62.96484375 C-44.13541508 62.95546248 -45.69270688 62.94636264 -47.25 62.9375 C-48.02730469 62.92912109 -48.80460937 62.92074219 -49.60546875 62.91210938 C-50.35957031 62.90888672 -51.11367188 62.90566406 -51.890625 62.90234375 C-52.58188477 62.89710693 -53.27314453 62.89187012 -53.98535156 62.88647461 C-56.09973898 63.00562029 -57.96641515 63.42381763 -60 64 C-58.33711038 60.19648452 -55.86774766 57.10673463 -53.3125 53.875 C-50.24052358 49.94397224 -47.25182146 45.99738637 -44.4375 41.875 C-40.6067646 36.32268705 -36.36216895 31.14112769 -32 26 C-31.24589844 25.06885376 -31.24589844 25.06885376 -30.4765625 24.11889648 C-26.17589404 18.95177711 -21.51756216 15.12202488 -16 11.3125 C-15.23171875 10.77044922 -14.4634375 10.22839844 -13.671875 9.66992188 C-12.16826006 8.60997563 -10.66184612 7.55398623 -9.15234375 6.50244141 C-6.08335958 4.36014007 -3.04201447 2.18038005 0 0 Z " fill="#02A23F" transform="translate(385,235)"/>
<path d="M0 0 C0.83789062 -0.02964844 1.67578125 -0.05929687 2.5390625 -0.08984375 C10.10964425 -0.00572617 13.91668619 3.73269803 19.37109375 8.61621094 C23.1283598 11.80808503 27.21720864 14.59173856 31.2253418 17.45654297 C32.83285043 18.6158863 34.41879664 19.8050285 36 21 C36 21.33 36 21.66 36 22 C34.93072266 22.05607422 34.93072266 22.05607422 33.83984375 22.11328125 C32.88207031 22.17902344 31.92429687 22.24476563 30.9375 22.3125 C29.99777344 22.37050781 29.05804688 22.42851562 28.08984375 22.48828125 C24.90713258 22.87367081 24.90713258 22.87367081 21.87768555 24.4519043 C17.62351909 26.31815775 13.45787449 26.8065809 8.8671875 27.28125 C8.00087204 27.37996399 7.13455658 27.47867798 6.24198914 27.5803833 C3.45396764 27.89644442 0.66458943 28.19812502 -2.125 28.5 C-5.93150934 28.9277459 -9.7371972 29.36262093 -13.54296875 29.796875 C-14.46555984 29.9010675 -15.38815094 30.00526001 -16.33869934 30.11260986 C-23.05642658 30.8755962 -29.75131699 31.74511415 -36.4375 32.75 C-42.94437632 33.72461275 -49.43294235 34.55399374 -56 35 C-54.73734902 26.0319405 -47.99301066 17.5254993 -41 12 C-27.5100319 2.61643411 -16.21793419 -0.38614129 0 0 Z " fill="#44AF40" transform="translate(287,277)"/>
<path d="M0 0 C7.43325128 4.82556457 14.48446382 13.47797946 17 22 C17.06337269 24.31172537 17.03367197 26.62690674 16.9375 28.9375 C16.80779572 36.68923823 18.05114432 43.47138491 20 51 C17.02443917 49.61023708 14.48886524 47.98955167 11.8671875 46.015625 C10.67174316 45.11807495 10.67174316 45.11807495 9.45214844 44.20239258 C8.17645996 43.23595825 8.17645996 43.23595825 6.875 42.25 C5.98844727 41.58186279 5.10189453 40.91372559 4.18847656 40.2253418 C-2.41727807 35.23339959 -8.96118401 30.16501197 -15.484375 25.06591797 C-22.24136405 19.79075094 -29.08826947 14.64224898 -35.96191406 9.52050781 C-39.64697533 6.77127907 -43.32280677 4.00973802 -47 1.25 C-48.35412934 0.23432523 -49.70829237 -0.78130462 -51.0625 -1.796875 C-52.031875 -2.52390625 -53.00125 -3.2509375 -54 -4 C-53 -6 -53 -6 -50.296875 -7.0703125 C-31.69729403 -12.6010249 -16.54654922 -9.56435991 0 0 Z " fill="#01A240" transform="translate(303,247)"/>
<path d="M0 0 C3.02583311 1.70316354 5.49731159 3.51226449 7.6875 6.25 C7.6875 6.91 7.6875 7.57 7.6875 8.25 C8.6775 7.92 9.6675 7.59 10.6875 7.25 C16.179142 6.60392447 19.43736495 7.65112155 23.88671875 10.68359375 C26.79913328 13.21695216 28.12094103 15.72524231 29.6875 19.25 C29.6875 20.24 29.6875 21.23 29.6875 22.25 C37.9375 22.25 46.1875 22.25 54.6875 22.25 C54.6875 20.6 54.6875 18.95 54.6875 17.25 C55.0175 17.25 55.3475 17.25 55.6875 17.25 C55.6875 19.23 55.6875 21.21 55.6875 23.25 C15.4275 23.25 -24.8325 23.25 -66.3125 23.25 C-65.8175 21.765 -65.8175 21.765 -65.3125 20.25 C-65.3125 20.91 -65.3125 21.57 -65.3125 22.25 C-61.24859165 22.25626939 -57.18822304 22.19663809 -53.125 22.125 C-51.97451172 22.12757812 -50.82402344 22.13015625 -49.63867188 22.1328125 C-43.731401 22.2231599 -43.731401 22.2231599 -38.54760742 19.88720703 C-37.39449008 18.39640215 -36.34656512 16.82571828 -35.3125 15.25 C-32.50264422 14.23982497 -30.34883359 14.35292656 -27.3125 14.25 C-27.2196875 12.950625 -27.2196875 12.950625 -27.125 11.625 C-25.94503612 6.72361156 -23.5449034 3.82581416 -19.51953125 0.984375 C-13.0474769 -2.68441429 -6.78176907 -3.17069723 0 0 Z " fill="#DEF7FD" transform="translate(368.3125,81.75)"/>
<path d="M0 0 C3.40615517 2.48408488 5.92998623 5.71410752 7.93359375 9.41015625 C7.93359375 10.40015625 7.93359375 11.39015625 7.93359375 12.41015625 C8.98546875 12.45140625 10.03734375 12.49265625 11.12109375 12.53515625 C16.13376686 13.68560582 17.082132 15.26257552 19.93359375 19.41015625 C19.93359375 19.74015625 19.93359375 20.07015625 19.93359375 20.41015625 C-9.43640625 20.41015625 -38.80640625 20.41015625 -69.06640625 20.41015625 C-69.06640625 18.43015625 -69.06640625 16.45015625 -69.06640625 14.41015625 C-68.73640625 14.41015625 -68.40640625 14.41015625 -68.06640625 14.41015625 C-68.06640625 16.06015625 -68.06640625 17.71015625 -68.06640625 19.41015625 C-60.47640625 19.41015625 -52.88640625 19.41015625 -45.06640625 19.41015625 C-44.73640625 17.76015625 -44.40640625 16.11015625 -44.06640625 14.41015625 C-42.7265625 12.42578125 -42.7265625 12.42578125 -41.12890625 10.66015625 C-40.60425781 10.0671875 -40.07960938 9.47421875 -39.5390625 8.86328125 C-36.78329748 6.14406484 -34.6115363 6.33077381 -30.87890625 6.22265625 C-25.62262278 5.81039872 -23.23206332 4.48913492 -19.54296875 0.84375 C-13.98642713 -4.55109332 -6.281051 -3.41601019 0 0 Z " fill="#DFF7FD" transform="translate(126.06640625,185.58984375)"/>
<path d="M0 0 C0 0.66 0 1.32 0 2 C-1.92527235 3.52597953 -3.85185335 4.92579986 -5.875 6.3125 C-7.1501758 7.20510631 -8.42489166 8.09836995 -9.69921875 8.9921875 C-10.38806152 9.47268555 -11.0769043 9.95318359 -11.78662109 10.44824219 C-15.77678313 13.24566883 -19.73227192 16.09100107 -23.6875 18.9375 C-24.46528809 19.49284424 -25.24307617 20.04818848 -26.04443359 20.62036133 C-26.7761377 21.14654053 -27.5078418 21.67271973 -28.26171875 22.21484375 C-28.91100342 22.68011475 -29.56028809 23.14538574 -30.22924805 23.62475586 C-32.02613468 24.95728328 -32.02613468 24.95728328 -33.53442383 26.56079102 C-35.44840853 28.44034121 -37.68509362 29.53777991 -40.0234375 30.81640625 C-42.96889948 32.58019079 -45.61473953 34.69617833 -48.30078125 36.828125 C-50 38 -50 38 -52 38 C-52.75024893 27.22559174 -50.55183973 18.22905145 -43.62109375 9.77734375 C-32.27407756 -2.66336075 -15.67896189 -6.6516808 0 0 Z " fill="#00A13E" transform="translate(392,229)"/>
<path d="M0 0 C1.76939002 2.65408503 2.41467605 4.05107923 3.1484375 7.02734375 C3.34735596 7.81415527 3.54627441 8.6009668 3.7512207 9.41162109 C4.05999146 10.66193115 4.05999146 10.66193115 4.375 11.9375 C6.0611552 18.60017682 7.91995797 25.09917458 10.30078125 31.5546875 C11 34 11 34 11 39 C-2.2 39 -15.4 39 -29 39 C-26.93428626 35.55714376 -24.97536772 32.52751443 -22.55859375 29.375 C-21.89666016 28.5089917 -21.23472656 27.6429834 -20.55273438 26.75073242 C-19.50569336 25.38911987 -19.50569336 25.38911987 -18.4375 24 C-17.72529297 23.06969971 -17.01308594 22.13939941 -16.27929688 21.1809082 C-14.18892278 18.45183497 -12.09501153 15.72551414 -10 13 C-8.90752362 11.57684477 -7.81507249 10.15367015 -6.72265625 8.73046875 C-4.48524209 5.81763062 -2.24413485 2.90766511 0 0 Z " fill="#DDF5FA" transform="translate(318,307)"/>
<path d="M0 0 C12.11923969 1.68216576 24.2120502 3.48560977 36.29052734 5.43945312 C48.18318108 7.36112632 60.09105411 9.18246489 72 11 C72 11.33 72 11.66 72 12 C71.14664063 12.17273438 70.29328125 12.34546875 69.4140625 12.5234375 C54.40261116 15.89714512 39.94358297 21.5400602 25.91015625 27.80859375 C23 29 23 29 20 29 C19.68546875 28.13117188 19.3709375 27.26234375 19.046875 26.3671875 C14.802157 14.93713361 10.34490787 7.73621908 0 1 C0 0.67 0 0.34 0 0 Z " fill="#62DAF7" transform="translate(415,233)"/>
<path d="M0 0 C0.67033505 4.27026602 1.33564106 8.54130049 2 12.8125 C2.19078125 14.02744141 2.3815625 15.24238281 2.578125 16.49414062 C2.75859375 17.65751953 2.9390625 18.82089844 3.125 20.01953125 C3.37636719 21.62985229 3.37636719 21.62985229 3.6328125 23.27270508 C4 26 4 26 4 29 C-2.7831364 30.42002108 -9.06697907 31.22731216 -16 31 C-16.31453125 30.19175781 -16.6290625 29.38351562 -16.953125 28.55078125 C-17.38109375 27.48214844 -17.8090625 26.41351563 -18.25 25.3125 C-18.66765625 24.25675781 -19.0853125 23.20101563 -19.515625 22.11328125 C-23.25019309 14.28051607 -29.59543128 9.70000898 -37.5625 6.625 C-38.366875 6.41875 -39.17125 6.2125 -40 6 C-40 5.34 -40 4.68 -40 4 C-36.07277755 3.42030204 -32.14417154 2.85115995 -28.21411133 2.29101562 C-26.23376342 2.0066433 -24.25455764 1.714353 -22.27539062 1.421875 C-14.79086878 0.36077823 -7.55977107 -0.28389804 0 0 Z " fill="#C2F0F5" transform="translate(386,292)"/>
<path d="M0 0 C1.32 1.32 2.64 2.64 4 4 C-1.94 9.94 -7.88 15.88 -14 22 C-26.7003807 16.28482868 -37.5133468 8.10683041 -48 -1 C-48 -1.33 -48 -1.66 -48 -2 C-32.05156664 -4.63454946 -15.31126541 -6.37641387 0 0 Z " fill="#717082" transform="translate(442,425)"/>
<path d="M0 0 C-1.57574138 4.93605735 -4.46676282 8.48829972 -7.625 12.5 C-8.79076003 14.00229739 -9.95610431 15.50491746 -11.12109375 17.0078125 C-12.05477783 18.20712402 -12.05477783 18.20712402 -13.00732422 19.43066406 C-16.59552629 24.05725542 -20.13962639 28.71746031 -23.6875 33.375 C-24.38246582 34.28443359 -25.07743164 35.19386719 -25.79345703 36.13085938 C-26.4429834 36.98228516 -27.09250977 37.83371094 -27.76171875 38.7109375 C-28.6273645 39.84474854 -28.6273645 39.84474854 -29.51049805 41.00146484 C-30.72480081 42.63075224 -31.87283765 44.30925648 -33 46 C-33.66 46 -34.32 46 -35 46 C-38.872492 40.18348591 -37.78512212 30.72460907 -37 24 C-35.84988353 20.21057242 -34.28259691 17.21938524 -32 14 C-31.071875 12.6078125 -31.071875 12.6078125 -30.125 11.1875 C-21.69891663 2.51359064 -11.97992886 -0.81991909 0 0 Z " fill="#04A341" transform="translate(323,299)"/>
<path d="M0 0 C4.06280924 0.30883347 8.1252142 0.62191747 12.1875 0.9375 C13.91323242 1.06801758 13.91323242 1.06801758 15.67382812 1.20117188 C17.34155273 1.33168945 17.34155273 1.33168945 19.04296875 1.46484375 C20.57473755 1.58267212 20.57473755 1.58267212 22.13745117 1.70288086 C24.81138499 1.98042265 27.37579723 2.4245724 30 3 C30.06058594 4.09699219 30.12117188 5.19398438 30.18359375 6.32421875 C30.26804498 7.77865654 30.35269066 9.23308305 30.4375 10.6875 C30.47681641 11.40873047 30.51613281 12.12996094 30.55664062 12.87304688 C30.59853516 13.57880859 30.64042969 14.28457031 30.68359375 15.01171875 C30.72025146 15.65584717 30.75690918 16.29997559 30.79467773 16.96362305 C31.03339807 19.3312406 31.53331775 21.66658877 32 24 C21.44 24 10.88 24 0 24 C0 16.08 0 8.16 0 0 Z " fill="#DDF6FB" transform="translate(256,322)"/>
<path d="M0 0 C1.42336877 2.84673755 1.00758837 5.14615347 0.87890625 8.3203125 C0.83056641 9.57714844 0.78222656 10.83398438 0.73242188 12.12890625 C0.67634766 13.44761719 0.62027344 14.76632813 0.5625 16.125 C0.50927587 17.46482438 0.45653549 18.80466808 0.40429688 20.14453125 C0.27429992 23.42990887 0.13932314 26.71500678 0 30 C-0.9132605 30.01401855 -0.9132605 30.01401855 -1.8449707 30.02832031 C-17.88788155 30.16152767 -17.88788155 30.16152767 -33 35 C-34.39380406 35.58816554 -35.78942651 36.17205624 -37.1875 36.75 C-38.115625 37.1625 -39.04375 37.575 -40 38 C-38.36876777 34.40270365 -36.21464034 31.36272618 -33.875 28.1875 C-33.15054687 27.19105469 -32.42609375 26.19460938 -31.6796875 25.16796875 C-26.18316574 18.29327262 -18.80575088 13.24163505 -11.6875 8.1875 C-10.89021484 7.61580078 -10.09292969 7.04410156 -9.27148438 6.45507812 C-6.20574297 4.26084269 -3.13717431 2.09144954 0 0 Z " fill="#61D8F4" transform="translate(385,235)"/>
<path d="M0 0 C-5 5 -5 5 -7.4375 7.0625 C-10.01702285 10.019514 -11.44592857 12.67261024 -13.16015625 16.18359375 C-13.69390869 17.2708374 -14.22766113 18.35808105 -14.77758789 19.47827148 C-15.18098389 20.31044189 -15.58437988 21.1426123 -16 22 C-20.43795812 21.6937956 -24.87526265 21.37896458 -29.3125 21.0625 C-30.57513672 20.97548828 -31.83777344 20.88847656 -33.13867188 20.79882812 C-34.34716797 20.71181641 -35.55566406 20.62480469 -36.80078125 20.53515625 C-37.91622314 20.456604 -39.03166504 20.37805176 -40.1809082 20.29711914 C-43 20 -43 20 -46 19 C-46 14.71 -46 10.42 -46 6 C-41.09526597 4.48420042 -36.42531627 3.54441296 -31.30859375 2.9296875 C-30.60025894 2.84373322 -29.89192413 2.75777893 -29.16212463 2.66921997 C-27.67587282 2.49013622 -26.18928636 2.31380979 -24.70239258 2.14013672 C-22.43936278 1.87521806 -20.17769585 1.60039833 -17.91601562 1.32421875 C-5.8710767 -0.11682042 -5.8710767 -0.11682042 0 0 Z " fill="#C3F1F7" transform="translate(302,303)"/>
<path d="M0 0 C4.50377519 4.19229914 7.99551437 8.87547353 11.5625 13.875 C12.12646484 14.65230469 12.69042969 15.42960938 13.27148438 16.23046875 C16.47580789 20.69028744 19.37064408 25.17844268 22 30 C20.23244474 30.84026396 18.46082737 31.67198722 16.6875 32.5 C15.70136719 32.9640625 14.71523438 33.428125 13.69921875 33.90625 C11 35 11 35 8 35 C7.67 35.66 7.34 36.32 7 37 C3.82663808 35.39876644 1.32768567 33.70658221 -1 31 C-2.03499732 26.80321663 -1.8032193 22.79324106 -1.5625 18.5 C-1.53478516 17.38496094 -1.50707031 16.26992187 -1.47851562 15.12109375 C-1.32237096 9.98362797 -0.91521179 5.0625144 0 0 Z " fill="#62D9F7" transform="translate(399,239)"/>
<path d="M0 0 C4.17357465 2.75278328 8.12892887 6.2469914 9.60546875 11.16015625 C9.71503906 11.74667969 9.82460938 12.33320313 9.9375 12.9375 C8.68259766 12.7209375 8.68259766 12.7209375 7.40234375 12.5 C-4.53303952 10.59668307 -16.28899275 9.63265586 -28.0625 12.9375 C-24.74615093 9.41542208 -21.13252794 6.54437617 -17.25 3.6875 C-16.65896484 3.22859375 -16.06792969 2.7696875 -15.45898438 2.296875 C-10.31376335 -1.47366865 -6.19727549 -2.15007517 0 0 Z " fill="#F8FCFB" transform="translate(450.0625,196.0625)"/>
<path d="M0 0 C5.41076545 3.15081595 10.31415623 6.86652807 15.3125 10.625 C16.24384766 11.31851562 17.17519531 12.01203125 18.13476562 12.7265625 C19.01455078 13.3865625 19.89433594 14.0465625 20.80078125 14.7265625 C21.60684814 15.33064941 22.41291504 15.93473633 23.2434082 16.55712891 C23.8230835 17.03327637 24.40275879 17.50942383 25 18 C25 18.33 25 18.66 25 19 C18.4 19.66 11.8 20.32 5 21 C0.84821429 6.9375 0.84821429 6.9375 0 0 Z " fill="#C1EDF2" transform="translate(332,306)"/>
<path d="M0 0 C7.30061438 3.65030719 15.79894701 9.21843473 19 17 C15.828262 18.585869 12.36486178 18.37866445 8.875 18.5625 C7.74384766 18.62727539 7.74384766 18.62727539 6.58984375 18.69335938 C4.72678112 18.7994832 2.86341476 18.90025001 1 19 C-0.00926479 14.84373632 -0.10239579 10.95634906 -0.0625 6.6875 C-0.05347656 5.43324219 -0.04445313 4.17898438 -0.03515625 2.88671875 C-0.01775391 1.45779297 -0.01775391 1.45779297 0 0 Z " fill="#04A342" transform="translate(398,270)"/>
<path d="M0 0 C1.78596189 2.67894284 2.39169178 4.0031669 3.0703125 7.01171875 C3.24433594 7.76904297 3.41835938 8.52636719 3.59765625 9.30664062 C3.77167969 10.09232422 3.94570313 10.87800781 4.125 11.6875 C4.30675781 12.48478516 4.48851562 13.28207031 4.67578125 14.10351562 C5.12273427 16.06775651 5.56210416 18.03372014 6 20 C5.15236084 19.99214478 5.15236084 19.99214478 4.28759766 19.98413086 C1.7334097 19.96337578 -0.82076053 19.9503446 -3.375 19.9375 C-4.26445312 19.92912109 -5.15390625 19.92074219 -6.0703125 19.91210938 C-6.92109375 19.90888672 -7.771875 19.90566406 -8.6484375 19.90234375 C-9.43395996 19.89710693 -10.21948242 19.89187012 -11.02880859 19.88647461 C-13.07772668 19.87426047 -13.07772668 19.87426047 -15 21 C-13.60917658 18.00708885 -11.97717635 15.49987528 -9.9609375 12.890625 C-9.38085938 12.13652344 -8.80078125 11.38242187 -8.203125 10.60546875 C-7.59984375 9.82816406 -6.9965625 9.05085938 -6.375 8.25 C-5.76398438 7.45722656 -5.15296875 6.66445313 -4.5234375 5.84765625 C-3.01861835 3.89609392 -1.51072716 1.94699011 0 0 Z " fill="#C2EFF4" transform="translate(318,307)"/>
<path d="M0 0 C-2.16128176 6.84405889 -4.7053245 13.61656621 -8 20 C-8.38671875 19.33613281 -8.7734375 18.67226563 -9.171875 17.98828125 C-11.87641471 13.40261368 -14.56976928 9.08989047 -18 5 C-18 4.67 -18 4.34 -18 4 C-15.37569876 3.3304744 -12.75063343 2.66426282 -10.125 2 C-9.00544922 1.71382812 -9.00544922 1.71382812 -7.86328125 1.421875 C-2.2265625 0 -2.2265625 0 0 0 Z " fill="#60D9F4" transform="translate(327,248)"/>
<path d="M0 0 C1.42377744 0.54425041 2.84299618 1.10124841 4.25 1.6875 C4.25 2.0175 4.25 2.3475 4.25 2.6875 C-7.27164009 4.79911731 -7.27164009 4.79911731 -12.75 5.6875 C-11.44026002 4.3309836 -10.10197858 3.00192362 -8.75 1.6875 C-8.193125 1.048125 -7.63625 0.40875 -7.0625 -0.25 C-4.08036886 -1.62016836 -3.06036901 -1.01533369 0 0 Z " fill="#CBEEEB" transform="translate(434.75,203.3125)"/>
<path d="M0 0 C4.95 0.99 4.95 0.99 10 2 C7.53721199 4.46278801 5.29323018 4.99771255 2 6 C2 4.35 2 2.7 2 1 C1.34 0.67 0.68 0.34 0 0 Z " fill="#BCEFF5" transform="translate(254,277)"/>
<path d="M0 0 C0.66 0.33 1.32 0.66 2 1 C0.68 3.31 -0.64 5.62 -2 8 C-2.33 8 -2.66 8 -3 8 C-3.1875 5.125 -3.1875 5.125 -3 2 C-2.01 1.34 -1.02 0.68 0 0 Z " fill="#EAF6F2" transform="translate(401,187)"/>
</svg>
